<svg width="156" height="31" viewBox="0 0 156 31" fill="none" xmlns="http://www.w3.org/2000/svg">
<g clip-path="url(#clip0_2029_82)">
<path d="M31.0714 8.00091C32.9621 8.00091 34.4947 6.43871 34.4947 4.51164C34.4947 2.58457 32.9621 1.02237 31.0714 1.02237C29.1808 1.02237 27.6482 2.58457 27.6482 4.51164C27.6482 6.43871 29.1808 8.00091 31.0714 8.00091Z" fill="#5CC0BE"/>
<path fill-rule="evenodd" clip-rule="evenodd" d="M5.06929 14.9033C5.61499 8.38217 10.981 3.26277 17.5199 3.26277C20.6586 3.26277 23.5268 4.44265 25.7217 6.39049C25.7217 5.44171 25.7217 4.49293 25.7217 3.54415C23.378 1.9376 20.5565 1 17.5199 1C9.39242 1 2.80371 7.71577 2.80371 16C2.80371 16.0352 2.80382 16.0702 2.80404 16.1053C3.30628 15.8126 3.81743 15.5389 4.32489 15.2778C4.57161 15.1509 4.81975 15.0261 5.06919 14.9033H5.06929Z" fill="white"/>
<path fill-rule="evenodd" clip-rule="evenodd" d="M8.89602 25.218C8.39813 25.2721 7.90262 25.3167 7.41069 25.3507C7.01633 25.3781 6.55765 25.406 6.06519 25.4179C8.76294 28.8226 12.8919 31 17.5198 31C25.1609 31 31.4419 25.0638 32.1662 17.469C31.6754 17.7812 31.1764 18.073 30.6904 18.3448C30.3626 18.5283 30.0303 18.7082 29.6941 18.8843C28.4118 24.5295 23.4478 28.7371 17.5197 28.7371C14.1757 28.7371 11.1385 27.3983 8.89581 25.2178L8.89602 25.218Z" fill="white"/>
<path fill-rule="evenodd" clip-rule="evenodd" d="M10.7677 21.8972C13.3448 21.4798 15.9362 20.8415 18.3828 20.1169C21.0392 19.3301 23.7664 18.3469 26.3391 17.1602C26.3867 16.7802 26.4113 16.393 26.4113 16C26.4113 15.0491 26.2677 14.1324 26.0012 13.2713C25.9094 12.9745 25.8029 12.6842 25.6828 12.4014C25.3851 11.7005 25.0029 11.0455 24.5494 10.4496C22.9228 8.3123 20.3788 6.93686 17.5197 6.93686C12.8691 6.93686 9.05231 10.5763 8.6612 15.2132C8.63925 15.4726 8.62817 15.7349 8.62817 15.9999C8.62817 16.5055 8.66881 17.0016 8.74692 17.4847C8.79678 17.7931 8.86186 18.0962 8.94149 18.3932C9.29251 19.7033 9.92469 20.8952 10.7678 21.8971L10.7677 21.8972Z" fill="white"/>
<path fill-rule="evenodd" clip-rule="evenodd" d="M28.4594 9.83881C28.4197 9.84346 28.3809 9.84789 28.3425 9.85243C27.6534 9.93349 26.9591 10.0317 26.2622 10.1447C26.6635 10.7659 27.0028 11.4324 27.271 12.1351C28.0115 12.0232 28.7062 11.9366 29.3468 11.877C30.2226 11.7956 30.997 11.7647 31.648 11.7885C32.9565 11.8363 33.766 12.1045 33.8981 12.626C34.0375 13.1762 33.4063 13.9729 32.196 14.8865C31.6006 15.3358 30.8651 15.8133 30.0124 16.3038C29.3673 16.6746 28.6552 17.0529 27.8858 17.4317C27.3307 17.705 26.7459 17.9786 26.135 18.2501C23.9191 19.2346 21.3599 20.1905 18.6339 20.9977C16.1082 21.7457 13.6918 22.3099 11.5236 22.6921C10.8654 22.8081 10.2302 22.9072 9.62173 22.9897C8.77064 23.1052 7.97181 23.1879 7.23599 23.238C6.24932 23.3052 5.37607 23.314 4.64144 23.2645C3.16285 23.1647 2.24701 22.8292 2.10285 22.2606C1.97574 21.7588 2.46364 21.1048 3.43662 20.3661C3.95821 19.9701 4.61939 19.5496 5.39986 19.1151C5.96446 18.801 6.59165 18.4794 7.27369 18.1544C7.13354 17.4585 7.05999 16.7377 7.05999 15.9997C7.05999 15.9723 7.0601 15.945 7.06032 15.9176C6.43433 16.2061 5.8191 16.506 5.21789 16.8177C5.16357 16.8458 5.10903 16.8743 5.05439 16.903C4.35626 17.2689 3.63174 17.6757 2.95046 18.1279C2.50623 18.4228 2.08047 18.7368 1.6923 19.0715C0.620126 19.9958 -0.295059 21.2735 0.0894188 22.7906C0.693567 25.175 3.75059 25.4735 6.06507 25.4176C6.55742 25.4058 7.01621 25.3778 7.41057 25.3504C7.9025 25.3163 8.39801 25.2717 8.8959 25.2176C9.81011 25.1182 10.7326 24.9867 11.6555 24.8291C12.464 24.691 13.2729 24.5327 14.0773 24.3584C15.8291 23.9789 17.5589 23.5232 19.2142 23.0329C21.0872 22.4783 23.0043 21.827 24.885 21.0785C25.656 20.7716 26.4209 20.4483 27.1743 20.1085C28.032 19.7217 28.8746 19.3136 29.6942 18.884C30.0304 18.7078 30.3627 18.528 30.6905 18.3445C31.1765 18.0727 31.6755 17.7809 32.1663 17.4687C32.9236 16.987 33.6614 16.4567 34.3017 15.8756C35.3531 14.9215 36.2982 13.6211 35.9118 12.0957C35.3818 10.0047 33.0097 9.60959 30.8573 9.652C29.9733 9.66939 29.1265 9.76063 28.4595 9.83848L28.4594 9.83881Z" fill="white"/>
<rect x="-9.5" y="-2.5" width="197" height="37" stroke="black" stroke-width="3"/>
<path fill-rule="evenodd" clip-rule="evenodd" d="M19.2906 22.598C17.1024 23.3162 14.8221 23.9743 12.5171 24.5096C13.8787 25.316 15.3876 25.7939 16.988 25.8636C21.057 26.0408 24.7585 23.5374 27.0629 19.5778C27.0383 19.589 27.0138 19.6001 26.9892 19.6113C24.4287 20.7722 21.8269 21.7656 19.2906 22.598Z" fill="white"/>
</g>
<path d="M45.68 24V12.096H48.656V13.656H49.088C49.28 13.24 49.64 12.848 50.168 12.48C50.696 12.096 51.496 11.904 52.568 11.904C53.496 11.904 54.304 12.12 54.992 12.552C55.696 12.968 56.24 13.552 56.624 14.304C57.008 15.04 57.2 15.904 57.2 16.896V24H54.176V17.136C54.176 16.24 53.952 15.568 53.504 15.12C53.072 14.672 52.448 14.448 51.632 14.448C50.704 14.448 49.984 14.76 49.472 15.384C48.96 15.992 48.704 16.848 48.704 17.952V24H45.68ZM64.8176 24.192C63.8896 24.192 63.0736 23.984 62.3696 23.568C61.6816 23.136 61.1456 22.544 60.7616 21.792C60.3776 21.04 60.1856 20.176 60.1856 19.2V12.096H63.2096V18.96C63.2096 19.856 63.4256 20.528 63.8576 20.976C64.3056 21.424 64.9376 21.648 65.7536 21.648C66.6816 21.648 67.4016 21.344 67.9136 20.736C68.4256 20.112 68.6816 19.248 68.6816 18.144V12.096H71.7056V24H68.7296V22.44H68.2976C68.1056 22.84 67.7456 23.232 67.2176 23.616C66.6896 24 65.8896 24.192 64.8176 24.192ZM75.0706 24V7.2H78.0946V24H75.0706ZM81.4456 24V7.2H84.4696V24H81.4456ZM92.7646 24.336C91.2126 24.336 89.9406 24 88.9486 23.328C87.9566 22.656 87.3566 21.696 87.1486 20.448L89.9326 19.728C90.0446 20.288 90.2286 20.728 90.4846 21.048C90.7566 21.368 91.0846 21.6 91.4686 21.744C91.8686 21.872 92.3006 21.936 92.7646 21.936C93.4686 21.936 93.9886 21.816 94.3246 21.576C94.6606 21.32 94.8286 21.008 94.8286 20.64C94.8286 20.272 94.6686 19.992 94.3486 19.8C94.0286 19.592 93.5166 19.424 92.8126 19.296L92.1406 19.176C91.3086 19.016 90.5486 18.8 89.8606 18.528C89.1726 18.24 88.6206 17.848 88.2046 17.352C87.7886 16.856 87.5806 16.216 87.5806 15.432C87.5806 14.248 88.0126 13.344 88.8766 12.72C89.7406 12.08 90.8766 11.76 92.2846 11.76C93.6126 11.76 94.7166 12.056 95.5966 12.648C96.4766 13.24 97.0526 14.016 97.3246 14.976L94.5166 15.84C94.3886 15.232 94.1246 14.8 93.7246 14.544C93.3406 14.288 92.8606 14.16 92.2846 14.16C91.7086 14.16 91.2686 14.264 90.9646 14.472C90.6606 14.664 90.5086 14.936 90.5086 15.288C90.5086 15.672 90.6686 15.96 90.9886 16.152C91.3086 16.328 91.7406 16.464 92.2846 16.56L92.9566 16.68C93.8526 16.84 94.6606 17.056 95.3806 17.328C96.1166 17.584 96.6926 17.96 97.1086 18.456C97.5406 18.936 97.7566 19.592 97.7566 20.424C97.7566 21.672 97.3006 22.64 96.3886 23.328C95.4926 24 94.2846 24.336 92.7646 24.336ZM100.407 28.8V12.096H103.383V13.536H103.815C104.087 13.072 104.511 12.664 105.087 12.312C105.663 11.944 106.487 11.76 107.559 11.76C108.519 11.76 109.407 12 110.223 12.48C111.039 12.944 111.695 13.632 112.191 14.544C112.687 15.456 112.935 16.56 112.935 17.856V18.24C112.935 19.536 112.687 20.64 112.191 21.552C111.695 22.464 111.039 23.16 110.223 23.64C109.407 24.104 108.519 24.336 107.559 24.336C106.839 24.336 106.231 24.248 105.735 24.072C105.255 23.912 104.863 23.704 104.559 23.448C104.271 23.176 104.039 22.904 103.863 22.632H103.431V28.8H100.407ZM106.647 21.696C107.591 21.696 108.367 21.4 108.975 20.808C109.599 20.2 109.911 19.32 109.911 18.168V17.928C109.911 16.776 109.599 15.904 108.975 15.312C108.351 14.704 107.575 14.4 106.647 14.4C105.719 14.4 104.943 14.704 104.319 15.312C103.695 15.904 103.383 16.776 103.383 17.928V18.168C103.383 19.32 103.695 20.2 104.319 20.808C104.943 21.4 105.719 21.696 106.647 21.696ZM119.407 24.336C118.559 24.336 117.799 24.192 117.127 23.904C116.455 23.6 115.919 23.168 115.519 22.608C115.135 22.032 114.943 21.336 114.943 20.52C114.943 19.704 115.135 19.024 115.519 18.48C115.919 17.92 116.463 17.504 117.151 17.232C117.855 16.944 118.655 16.8 119.551 16.8H122.815V16.128C122.815 15.568 122.639 15.112 122.287 14.76C121.935 14.392 121.375 14.208 120.607 14.208C119.855 14.208 119.295 14.384 118.927 14.736C118.559 15.072 118.319 15.512 118.207 16.056L115.423 15.12C115.615 14.512 115.919 13.96 116.335 13.464C116.767 12.952 117.335 12.544 118.039 12.24C118.759 11.92 119.631 11.76 120.655 11.76C122.223 11.76 123.463 12.152 124.375 12.936C125.287 13.72 125.743 14.856 125.743 16.344V20.784C125.743 21.264 125.967 21.504 126.415 21.504H127.375V24H125.359C124.767 24 124.279 23.856 123.895 23.568C123.511 23.28 123.319 22.896 123.319 22.416V22.392H122.863C122.799 22.584 122.655 22.84 122.431 23.16C122.207 23.464 121.855 23.736 121.375 23.976C120.895 24.216 120.239 24.336 119.407 24.336ZM119.935 21.888C120.783 21.888 121.471 21.656 121.999 21.192C122.543 20.712 122.815 20.08 122.815 19.296V19.056H119.767C119.207 19.056 118.767 19.176 118.447 19.416C118.127 19.656 117.967 19.992 117.967 20.424C117.967 20.856 118.135 21.208 118.471 21.48C118.807 21.752 119.295 21.888 119.935 21.888ZM134.944 24.336C133.792 24.336 132.744 24.096 131.8 23.616C130.872 23.136 130.136 22.44 129.592 21.528C129.048 20.616 128.776 19.512 128.776 18.216V17.88C128.776 16.584 129.048 15.48 129.592 14.568C130.136 13.656 130.872 12.96 131.8 12.48C132.744 12 133.792 11.76 134.944 11.76C136.08 11.76 137.056 11.96 137.872 12.36C138.688 12.76 139.344 13.312 139.84 14.016C140.352 14.704 140.688 15.488 140.848 16.368L137.92 16.992C137.856 16.512 137.712 16.08 137.488 15.696C137.264 15.312 136.944 15.008 136.528 14.784C136.128 14.56 135.624 14.448 135.016 14.448C134.408 14.448 133.856 14.584 133.36 14.856C132.88 15.112 132.496 15.504 132.208 16.032C131.936 16.544 131.8 17.176 131.8 17.928V18.168C131.8 18.92 131.936 19.56 132.208 20.088C132.496 20.6 132.88 20.992 133.36 21.264C133.856 21.52 134.408 21.648 135.016 21.648C135.928 21.648 136.616 21.416 137.08 20.952C137.56 20.472 137.864 19.848 137.992 19.08L140.92 19.776C140.712 20.624 140.352 21.4 139.84 22.104C139.344 22.792 138.688 23.336 137.872 23.736C137.056 24.136 136.08 24.336 134.944 24.336ZM148.838 24.336C147.654 24.336 146.606 24.088 145.694 23.592C144.798 23.08 144.094 22.368 143.582 21.456C143.086 20.528 142.838 19.44 142.838 18.192V17.904C142.838 16.656 143.086 15.576 143.582 14.664C144.078 13.736 144.774 13.024 145.67 12.528C146.566 12.016 147.606 11.76 148.79 11.76C149.958 11.76 150.974 12.024 151.838 12.552C152.702 13.064 153.374 13.784 153.854 14.712C154.334 15.624 154.574 16.688 154.574 17.904V18.936H145.91C145.942 19.752 146.246 20.416 146.822 20.928C147.398 21.44 148.102 21.696 148.934 21.696C149.782 21.696 150.406 21.512 150.806 21.144C151.206 20.776 151.51 20.368 151.718 19.92L154.19 21.216C153.966 21.632 153.638 22.088 153.206 22.584C152.79 23.064 152.23 23.48 151.526 23.832C150.822 24.168 149.926 24.336 148.838 24.336ZM145.934 16.68H151.502C151.438 15.992 151.158 15.44 150.662 15.024C150.182 14.608 149.55 14.4 148.766 14.4C147.95 14.4 147.302 14.608 146.822 15.024C146.342 15.44 146.046 15.992 145.934 16.68Z" fill="white"/>
<defs>
<clipPath id="clip0_2029_82">
<rect width="36" height="30" fill="white" transform="translate(0 1)"/>
</clipPath>
</defs>
</svg>
